<?xml version="1.0" encoding="utf-8"?>
<!-- Generator: Adobe Illustrator 22.0.1, SVG Export Plug-In . SVG Version: 6.00 Build 0)  -->
<svg version="1.1" id="Layer_1" xmlns="http://www.w3.org/2000/svg" xmlns:xlink="http://www.w3.org/1999/xlink" x="0px" y="0px"
	 width="16.583px" height="10.444px" viewBox="-432.721 -63.025 16.583 10.444"
	 style="enable-background:new -432.721 -63.025 16.583 10.444;" xml:space="preserve">
<path style="fill:#FFFFFF;" d="M-429.301-54.523l-0.107-0.104c-0.046,0.043-0.098,0.061-0.162,0.061
	c-0.064,0-0.116-0.018-0.161-0.061c-0.044-0.043-0.065-0.102-0.065-0.163c0-0.063,0.021-0.118,0.065-0.161
	c0.045-0.047,0.097-0.067,0.161-0.067c0.063,0,0.115,0.02,0.162,0.067l0.107-0.106c-0.064-0.061-0.154-0.114-0.269-0.114l0,0
	c-0.106,0-0.193,0.039-0.268,0.114c-0.073,0.073-0.11,0.161-0.11,0.267c0,0.1,0.037,0.191,0.11,0.267
	c0.074,0.073,0.162,0.112,0.268,0.112C-429.454-54.411-429.361-54.466-429.301-54.523L-429.301-54.523z M-428.176-55.172
	c-0.104,0-0.195,0.039-0.268,0.114c-0.073,0.073-0.111,0.161-0.111,0.267c0,0.102,0.038,0.191,0.111,0.267
	c0.074,0.073,0.164,0.112,0.268,0.112c0.106,0,0.195-0.035,0.269-0.112c0.073-0.076,0.111-0.165,0.111-0.267
	c0-0.106-0.038-0.194-0.111-0.267C-427.981-55.132-428.07-55.172-428.176-55.172L-428.176-55.172z M-428.176-55.018
	c0.062,0,0.117,0.02,0.161,0.067c0.045,0.043,0.068,0.098,0.068,0.161c0,0.061-0.023,0.12-0.068,0.157
	c-0.045,0.049-0.099,0.067-0.161,0.067c-0.062,0-0.116-0.018-0.16-0.067c-0.045-0.037-0.068-0.1-0.068-0.157
	c0-0.063,0.023-0.118,0.068-0.161C-428.292-54.999-428.238-55.018-428.176-55.018L-428.176-55.018z M-426.966-55.184v0.77h0.15
	v-0.316l0.217,0.295l0.216-0.295v0.316h0.149v-0.77l-0.365,0.503L-426.966-55.184z M-425.374-54.413h0.152v-0.234h0.11
	c0.074,0,0.136-0.022,0.186-0.071c0.05-0.051,0.078-0.11,0.078-0.187c0-0.071-0.028-0.132-0.078-0.183
	c-0.05-0.055-0.112-0.079-0.186-0.079h-0.262v0.519V-54.413z M-424.999-54.904c0,0.063-0.05,0.114-0.112,0.114h-0.11v-0.228h0.11
	C-425.05-55.018-424.999-54.965-424.999-54.904L-424.999-54.904z M-424.198-54.413h0.16l0.05-0.114h0.257l0.049,0.114h0.165
	l-0.344-0.763L-424.198-54.413z M-423.924-54.663l0.064-0.155l0.073,0.155H-423.924z M-422.687-55.184v0.77h0.151v-0.42l0.452,0.43
	v-0.768h-0.153v0.421L-422.687-55.184z M-421.254-55.166l0.234,0.429v0.324h0.146v-0.324l0.234-0.429h-0.171l-0.132,0.257
	l-0.138-0.257H-421.254z"/>
<g>
	<path style="fill-rule:evenodd;clip-rule:evenodd;fill:#FFFFFF;" d="M-429.563-57.358c0,0.271-0.224,0.484-0.494,0.484
		c-0.272,0-0.496-0.212-0.496-0.484c0-0.271,0.224-0.485,0.496-0.485C-429.788-57.843-429.563-57.629-429.563-57.358z"/>
	<g>
		<path style="fill-rule:evenodd;clip-rule:evenodd;fill:#FFFFFF;" d="M-431.953-55.246c-0.196,0.09-0.149-0.521-0.142-0.572
			c0.135-1.14,1.494-4.705,2.474-5.287c0.446-0.266,0.812,0.049,0.918,0.515c0.064,0.282,0.097,0.806,0.149,1.134
			c0.149,0.923,0.417,2.338,1.52,2.523c0.885,0.145,2.79-0.521,3.709-0.753c2.024-0.515,4.263-0.692,6.156,0.371
			c0.222,0.124,0.236,0.126,0.413,0.307c-0.246-0.026-0.265-0.045-0.495-0.116c-1.958-0.603-3.446-0.531-5.392,0.031
			c-1.162,0.334-2.815,1.044-3.949,1.124c-2.386,0.175-2.751-2.3-2.848-4.118c-0.005-0.081-0.012-0.149-0.019-0.215
			c-0.227,0.251-0.542,0.727-0.625,0.86C-430.481-58.81-432.097-55.846-431.953-55.246L-431.953-55.246z M-429.282-60.449
			c0.008-0.001,0.015-0.004,0.024-0.007C-429.268-60.455-429.274-60.453-429.282-60.449L-429.282-60.449z"/>
	</g>
</g>
</svg>
